<?xml version="1.0" encoding="UTF-8" standalone="no"?>
<!-- Generator: Adobe Illustrator 19.2.1, SVG Export Plug-In . SVG Version: 6.00 Build 0)  -->

<svg
   version="1.1"
   id="layer"
   x="0px"
   y="0px"
   viewBox="0 0 172 355.72787"
   xml:space="preserve"
   sodipodi:docname="holberton-school-logo-vector.svg"
   width="172"
   height="355.72787"
   xmlns:inkscape="http://www.inkscape.org/namespaces/inkscape"
   xmlns:sodipodi="http://sodipodi.sourceforge.net/DTD/sodipodi-0.dtd"
   xmlns="http://www.w3.org/2000/svg"
   xmlns:svg="http://www.w3.org/2000/svg"><defs
   id="defs2" /><sodipodi:namedview
   id="namedview2"
   pagecolor="#505050"
   bordercolor="#eeeeee"
   borderopacity="1"
   inkscape:showpageshadow="0"
   inkscape:pageopacity="0"
   inkscape:pagecheckerboard="0"
   inkscape:deskcolor="#505050" />
<style
   type="text/css"
   id="style1">
	.st0{fill:#26225C;}
	.st1{fill:#E11D3F;}
</style>

<path
   class="st1"
   d="m 127.3,333.1 v 0 c 12.1,-12.8 19.2,-30 19.2,-48.6 0,-38.8 -20,-51.1 -20,-51.1 21,-1.2 45.5,-26.2 45.5,-47.6 h -45.6 l -15.9,0.1 27.1,-8.9 V 59.8 C 137.6,45.6 135.2,34 130.2,25.1 123.3,11.9 105.4,0 79.8,0 61,0 52.6,5.6 52.6,5.6 v 4.9 C 52.3,48.2 29,74.5 0,82.9 c 0,0 5,15.6 23.1,13.4 l 36.7,-12.1 8.3,-2.3 2.7,-0.6 c 7.7,0 13.9,6.2 13.9,13.9 0,3.8 -1.6,7.3 -4.1,9.8 -13.9,17.3 -53.5,38.3 -53.5,80.9 0,65 73.4,68.7 73.4,117.6 0,23.8 -17,39.1 -34.5,39.1 -12.3,0 -16,-3.3 -16.6,-3.9 l -0.1,-0.1 c 8.8,0.7 17,-3.7 20.8,-10.9 4.3,-8.4 0.8,-16.9 0.5,-17.5 -0.8,-1.7 -2.4,-4.8 -5.6,-7.4 -5,-4 -11.8,-5.3 -17.4,-4 -9.6,2.2 -15.1,11.6 -16.5,18.8 -2.8,14 8.1,27.2 17.7,32.9 0,0 11.7,7 32.4,4.8 15.9,-1.7 29,-8.9 29,-8.9 m -0.3,0.1 c 0,0 0,0 0,0 10.2,-5.7 17.4,-13.4 17.4,-13.4 M 59.7,65.5 c -3.5,0 -6.3,-2.8 -6.3,-6.3 0,-3.5 2.8,-6.3 6.3,-6.3 3.5,0 6.3,2.8 6.3,6.3 0,3.5 -2.8,6.3 -6.3,6.3"
   id="path2"
   inkscape:export-filename="hypo.svg"
   inkscape:export-xdpi="96"
   inkscape:export-ydpi="96" />
</svg>
